<?xml version="1.0" standalone="no"?>
<!DOCTYPE svg PUBLIC "-//W3C//DTD SVG 20010904//EN"
 "http://www.w3.org/TR/2001/REC-SVG-20010904/DTD/svg10.dtd">
<svg version="1.0" xmlns="http://www.w3.org/2000/svg"
 width="463.000000pt" height="463.000000pt" viewBox="0 0 463.000000 463.000000"
 preserveAspectRatio="xMidYMid meet">
<metadata>
Created by potrace 1.11, written by Peter Selinger 2001-2013
</metadata>
<g transform="translate(0.000000,463.000000) scale(0.100000,-0.100000)"
fill="#000000" stroke="none">
<path d="M2119 4626 c-2 -2 -33 -7 -69 -10 -186 -19 -320 -53 -595 -149 -100
-35 -312 -148 -443 -236 -233 -156 -479 -409 -644 -661 -160 -245 -304 -613
-334 -855 -3 -22 -7 -45 -9 -52 -26 -79 -26 -528 -1 -693 47 -308 172 -650
317 -868 16 -24 29 -46 29 -49 0 -3 39 -58 87 -122 335 -445 814 -757 1345
-875 213 -47 305 -55 558 -51 118 2 229 6 245 9 33 7 69 13 130 22 113 16 329
81 474 140 226 94 490 262 665 424 274 253 484 563 610 898 44 118 108 358
121 452 3 25 9 70 13 100 4 30 7 147 7 260 0 216 -9 339 -29 408 -3 9 -8 36
-11 59 -21 152 -115 417 -216 611 -45 86 -153 260 -192 308 -278 345 -509 535
-852 703 -141 70 -379 155 -489 175 -11 2 -39 7 -61 11 -22 4 -49 9 -60 11
-105 21 -181 26 -371 29 -122 2 -223 2 -225 1z"/>
</g>
</svg>
